# Blender v2.70 (sub 0) OBJ File: ''
# www.blender.org
mtllib sphere.mtl
o Icosphere
v -0.319813 -0.762529 0.149523
v 0.403795 -0.209749 0.675248
v -0.596201 -0.209749 1.000172
v -1.214239 -0.209745 0.149523
v -0.596201 -0.209749 -0.701126
v 0.403795 -0.209749 -0.376203
v -0.043425 0.684690 1.000172
v -1.043420 0.684690 0.675248
v -1.043420 0.684690 -0.376203
v -0.043425 0.684690 -0.701126
v 0.574613 0.684686 0.149523
v -0.319813 1.237471 0.149523
v -0.552634 -0.420049 0.866086
v -0.482268 -0.613184 0.649518
v -0.397419 -0.730479 0.388375
v -0.116632 -0.730479 0.297141
v 0.105510 -0.613184 0.458534
v 0.289734 -0.420048 0.592379
v 0.212128 -0.264831 0.831235
v -0.056944 -0.288267 0.958534
v -0.349452 -0.264831 1.013707
v 0.492916 -0.264830 -0.145715
v 0.530835 -0.288265 0.149523
v 0.492916 -0.264830 0.444761
v -0.116632 -0.730479 0.001905
v 0.105510 -0.613184 -0.159489
v 0.289734 -0.420048 -0.293334
v -1.073254 -0.420044 0.149523
v -0.845543 -0.613181 0.149523
v -0.570960 -0.730478 0.149523
v -0.803784 -0.264831 0.866087
v -1.008002 -0.288266 0.649520
v -1.150863 -0.264828 0.388376
v -0.552634 -0.420049 -0.567040
v -0.482268 -0.613184 -0.350472
v -0.397419 -0.730479 -0.089330
v -1.150863 -0.264828 -0.089331
v -1.008002 -0.288266 -0.350474
v -0.803784 -0.264831 -0.567042
v -0.349452 -0.264831 -0.714661
v -0.056944 -0.288267 -0.659489
v 0.212128 -0.264831 -0.532190
v 0.636813 0.488620 0.297141
v 0.631245 0.237471 0.458535
v 0.540885 -0.013680 0.592380
v 0.540885 -0.013680 -0.293335
v 0.631245 0.237471 -0.159490
v 0.636813 0.488620 0.001904
v -0.164598 0.488622 1.104945
v -0.319813 0.237471 1.149523
v -0.475028 -0.013681 1.104945
v 0.367346 -0.013681 0.831238
v 0.267973 0.237471 0.958539
v 0.116194 0.488623 1.013711
v -1.180510 0.488621 0.592380
v -1.270871 0.237471 0.458535
v -1.276438 -0.013679 0.297141
v -0.755820 -0.013681 1.013711
v -0.907598 0.237471 0.958540
v -1.006971 0.488623 0.831238
v -1.006971 0.488623 -0.532193
v -0.907598 0.237471 -0.659494
v -0.755820 -0.013681 -0.714665
v -1.276438 -0.013679 0.001904
v -1.270871 0.237471 -0.159490
v -1.180510 0.488621 -0.293335
v 0.116194 0.488623 -0.714665
v 0.267973 0.237471 -0.659494
v 0.367346 -0.013681 -0.532193
v -0.475028 -0.013681 -0.805899
v -0.319813 0.237471 -0.850477
v -0.164598 0.488622 -0.805899
v 0.511238 0.739769 0.388376
v 0.368377 0.763207 0.649520
v 0.164159 0.739772 0.866087
v -0.290174 0.739773 1.013707
v -0.582682 0.763208 0.958534
v -0.851754 0.739772 0.831235
v -1.132542 0.739771 0.444761
v -1.170461 0.763207 0.149523
v -1.132542 0.739771 -0.145715
v -0.851754 0.739772 -0.532190
v -0.582682 0.763208 -0.659489
v -0.290174 0.739773 -0.714661
v 0.164159 0.739772 -0.567042
v 0.368377 0.763207 -0.350474
v 0.511238 0.739769 -0.089331
v -0.242206 1.205420 0.388376
v -0.157357 1.088125 0.649518
v -0.086991 0.894990 0.866086
v 0.433629 0.894985 0.149523
v 0.205917 1.088122 0.149523
v -0.068666 1.205420 0.149523
v -0.522994 1.205420 0.297141
v -0.745135 1.088125 0.458534
v -0.929359 0.894989 0.592379
v -0.522994 1.205420 0.001905
v -0.745135 1.088125 -0.159489
v -0.929359 0.894989 -0.293334
v -0.242206 1.205420 -0.089330
v -0.157357 1.088125 -0.350472
v -0.086991 0.894990 -0.567040
v -0.267022 -0.486141 0.837708
v -0.181614 -0.656959 0.574843
v 0.041992 -0.486140 0.737302
v 0.351004 -0.486140 -0.012934
v 0.351005 -0.486139 0.311981
v 0.127398 -0.656958 0.149524
v -0.958007 -0.486139 0.412386
v -0.681614 -0.656958 0.412387
v -0.767023 -0.486140 0.675251
v -0.767023 -0.486141 -0.376204
v -0.681614 -0.656958 -0.113340
v -0.958008 -0.486139 -0.113340
v 0.041991 -0.486141 -0.438256
v -0.181616 -0.656958 -0.275799
v -0.267024 -0.486140 -0.538664
v 0.680187 0.237471 0.149523
v 0.627400 -0.038925 0.311980
v 0.627400 -0.038925 -0.012935
v -0.010796 0.237471 1.100579
v -0.181614 -0.038927 1.100578
v 0.127403 -0.038927 1.000171
v -1.128831 0.237471 0.737306
v -1.181616 -0.038926 0.574847
v -0.990632 -0.038927 0.837713
v -1.128831 0.237471 -0.438260
v -0.990632 -0.038927 -0.538668
v -1.181616 -0.038926 -0.275801
v -0.010796 0.237471 -0.801534
v 0.127403 -0.038927 -0.701126
v -0.181614 -0.038927 -0.801532
v 0.351008 0.513867 0.837713
v 0.489206 0.237469 0.737306
v 0.541991 0.513865 0.574846
v -0.767029 0.513867 1.000171
v -0.628830 0.237470 1.100579
v -0.458012 0.513867 1.100578
v -1.267026 0.513867 -0.012935
v -1.319813 0.237471 0.149523
v -1.267026 0.513867 0.311981
v -0.458011 0.513868 -0.801532
v -0.628829 0.237470 -0.801534
v -0.767028 0.513868 -0.701126
v 0.541991 0.513867 -0.275799
v 0.489206 0.237471 -0.438259
v 0.351008 0.513868 -0.538666
v 0.041988 1.131900 0.412386
v 0.127396 0.961082 0.675251
v 0.318381 0.961081 0.412387
v -0.458010 1.131901 0.574842
v -0.681616 0.961083 0.737301
v -0.372602 0.961083 0.837708
v -0.767023 1.131900 0.149523
v -0.990629 0.961082 -0.012934
v -0.990629 0.961082 0.311980
v -0.458010 1.131901 -0.275797
v -0.372602 0.961083 -0.538662
v -0.681616 0.961083 -0.438256
v 0.041988 1.131900 -0.113340
v 0.318381 0.961081 -0.113341
v 0.127396 0.961082 -0.376205
vn 0.048151 -0.987786 0.148191
vn 0.722992 -0.554509 0.412072
vn -0.126060 -0.987786 0.091587
vn -0.126060 -0.987786 -0.091587
vn 0.048151 -0.987786 -0.148191
vn 0.819296 -0.398687 0.412071
vn -0.138726 -0.398689 0.906533
vn -0.905035 -0.398685 0.148193
vn -0.420608 -0.398689 -0.814946
vn 0.645086 -0.398688 -0.651853
vn 0.771146 -0.302388 0.560264
vn -0.294548 -0.302388 0.906533
vn -0.953185 -0.302386 0.000000
vn -0.294548 -0.302388 -0.906533
vn 0.771145 -0.302388 -0.560265
vn 0.342697 0.554509 0.758339
vn -0.615326 0.554508 0.560263
vn -0.722992 0.554508 -0.412072
vn 0.168486 0.554509 -0.814943
vn 0.827125 0.554505 -0.091587
vn -0.168486 -0.554509 0.814943
vn -0.112065 -0.759438 0.640855
vn -0.033907 -0.915754 0.400305
vn -0.071125 -0.636948 0.767619
vn 0.102585 -0.595461 0.796808
vn 0.014375 -0.836282 0.548112
vn 0.187595 -0.794658 0.577344
vn 0.228690 -0.672562 0.703819
vn 0.385367 -0.595460 0.704925
vn 0.089144 -0.957489 0.274350
vn 0.262729 -0.915754 0.303920
vn 0.310548 -0.836281 0.451878
vn 0.467354 -0.759438 0.452587
vn 0.508744 -0.636947 0.579205
vn 0.615326 -0.554509 0.560263
vn 0.722992 -0.554509 -0.412072
vn 0.789510 -0.595460 -0.148666
vn 0.789511 -0.595459 0.148666
vn 0.708071 -0.636946 -0.304853
vn 0.574859 -0.759438 -0.304617
vn 0.740043 -0.672559 -0.000000
vn 0.607058 -0.794658 0.000001
vn 0.525729 -0.836281 -0.155706
vn 0.370234 -0.915754 -0.155950
vn 0.708071 -0.636946 0.304854
vn 0.574859 -0.759438 0.304618
vn 0.525729 -0.836280 0.155706
vn 0.370234 -0.915755 0.155950
vn 0.288471 -0.957489 0.000000
vn 0.155817 -0.987786 0.000000
vn -0.827125 -0.554505 0.091587
vn -0.644124 -0.759435 0.091450
vn -0.391194 -0.915753 0.091451
vn -0.752032 -0.636944 0.169559
vn -0.726114 -0.595457 0.343786
vn -0.516846 -0.836280 0.183045
vn -0.491122 -0.794656 0.356820
vn -0.598706 -0.672561 0.434986
vn -0.551343 -0.595459 0.584337
vn -0.233377 -0.957489 0.169558
vn -0.207860 -0.915754 0.343785
vn -0.333799 -0.836281 0.434986
vn -0.286018 -0.759438 0.584335
vn -0.393647 -0.636947 0.662827
vn -0.342697 -0.554509 0.758339
vn -0.342697 -0.554509 -0.758339
vn -0.286018 -0.759438 -0.584335
vn -0.207860 -0.915754 -0.343785
vn -0.393648 -0.636948 -0.662826
vn -0.551342 -0.595460 -0.584336
vn -0.333798 -0.836282 -0.434984
vn -0.491121 -0.794657 -0.356818
vn -0.598706 -0.672561 -0.434985
vn -0.726114 -0.595457 -0.343786
vn -0.233376 -0.957489 -0.169558
vn -0.391194 -0.915753 -0.091450
vn -0.516846 -0.836280 -0.183045
vn -0.644125 -0.759434 -0.091450
vn -0.752031 -0.636945 -0.169559
vn -0.827126 -0.554504 -0.091587
vn 0.615326 -0.554509 -0.560263
vn 0.467353 -0.759438 -0.452587
vn 0.262728 -0.915754 -0.303921
vn 0.508743 -0.636947 -0.579205
vn 0.385367 -0.595460 -0.704925
vn 0.310547 -0.836281 -0.451878
vn 0.187593 -0.794658 -0.577345
vn 0.228688 -0.672562 -0.703820
vn 0.102585 -0.595460 -0.796808
vn 0.089144 -0.957489 -0.274350
vn -0.033908 -0.915755 -0.400305
vn 0.014375 -0.836281 -0.548113
vn -0.112066 -0.759438 -0.640855
vn -0.071126 -0.636947 -0.767619
vn -0.168486 -0.554509 -0.814943
vn 0.953186 0.302386 0.000000
vn 0.984649 0.078389 0.155951
vn 0.936345 -0.174544 0.304618
vn 0.985412 0.170183 0.000000
vn 0.984649 0.078389 -0.155951
vn 0.983104 -0.096236 0.155706
vn 0.982247 -0.187591 0.000000
vn 0.983104 -0.096236 -0.155706
vn 0.936345 -0.174543 -0.304618
vn 0.886357 -0.348476 0.304854
vn 0.885671 -0.439870 0.148666
vn 0.932509 -0.361146 0.000000
vn 0.885671 -0.439870 -0.148666
vn 0.886357 -0.348476 -0.304854
vn 0.819296 -0.398687 -0.412071
vn 0.294548 0.302388 0.906533
vn 0.155953 0.078388 0.984649
vn -0.000364 -0.174545 0.984649
vn 0.304507 0.170186 0.937183
vn 0.452593 0.078389 0.888265
vn 0.155709 -0.096236 0.983104
vn 0.303534 -0.187594 0.934171
vn 0.451885 -0.096236 0.886870
vn 0.579061 -0.174545 0.796381
vn -0.016034 -0.348476 0.937180
vn 0.132300 -0.439872 0.888262
vn 0.288164 -0.361147 0.886868
vn 0.415083 -0.439872 0.796378
vn 0.563838 -0.348476 0.748766
vn 0.645085 -0.398689 0.651853
vn -0.771145 0.302388 0.560264
vn -0.888267 0.078388 0.452590
vn -0.936571 -0.174545 0.303923
vn -0.797217 0.170186 0.579207
vn -0.704932 0.078388 0.704930
vn -0.886873 -0.096234 0.451880
vn -0.794654 -0.187594 0.577350
vn -0.703826 -0.096235 0.703824
vn -0.578465 -0.174546 0.796814
vn -0.896269 -0.348473 0.274350
vn -0.803907 -0.439871 0.400308
vn -0.754416 -0.361145 0.548115
vn -0.629137 -0.439872 0.640859
vn -0.537885 -0.348476 0.767622
vn -0.420607 -0.398689 0.814946
vn -0.771146 0.302388 -0.560264
vn -0.704932 0.078388 -0.704930
vn -0.578465 -0.174546 -0.796814
vn -0.797217 0.170186 -0.579207
vn -0.888266 0.078387 -0.452591
vn -0.703826 -0.096235 -0.703824
vn -0.794654 -0.187594 -0.577350
vn -0.886873 -0.096235 -0.451880
vn -0.936570 -0.174546 -0.303924
vn -0.537885 -0.348476 -0.767622
vn -0.629137 -0.439872 -0.640859
vn -0.754417 -0.361145 -0.548115
vn -0.803907 -0.439871 -0.400308
vn -0.896269 -0.348472 -0.274351
vn -0.905035 -0.398686 -0.148193
vn 0.294548 0.302388 -0.906533
vn 0.452594 0.078389 -0.888264
vn 0.579061 -0.174545 -0.796381
vn 0.304507 0.170186 -0.937183
vn 0.155953 0.078388 -0.984649
vn 0.451884 -0.096236 -0.886871
vn 0.303533 -0.187594 -0.934171
vn 0.155708 -0.096236 -0.983104
vn -0.000363 -0.174545 -0.984649
vn 0.563838 -0.348476 -0.748766
vn 0.415083 -0.439872 -0.796378
vn 0.288163 -0.361147 -0.886868
vn 0.132300 -0.439872 -0.888262
vn -0.016035 -0.348476 -0.937181
vn -0.138726 -0.398689 -0.906533
vn 0.420607 0.398690 0.814945
vn 0.578465 0.174546 0.796814
vn 0.704931 -0.078389 0.704931
vn 0.537887 0.348475 0.767622
vn 0.629137 0.439871 0.640859
vn 0.703826 0.096234 0.703823
vn 0.794655 0.187592 0.577349
vn 0.754417 0.361144 0.548114
vn 0.803908 0.439869 0.400308
vn 0.797217 -0.170188 0.579207
vn 0.888267 -0.078388 0.452590
vn 0.886873 0.096233 0.451880
vn 0.936571 0.174544 0.303923
vn 0.896269 0.348473 0.274351
vn 0.905035 0.398686 0.148193
vn -0.645086 0.398689 0.651852
vn -0.579061 0.174545 0.796381
vn -0.452595 -0.078389 0.888264
vn -0.563837 0.348476 0.748767
vn -0.415083 0.439871 0.796379
vn -0.451883 0.096236 0.886871
vn -0.303534 0.187593 0.934171
vn -0.288164 0.361146 0.886868
vn -0.132300 0.439872 0.888262
vn -0.304505 -0.170187 0.937184
vn -0.155953 -0.078389 0.984649
vn -0.155709 0.096235 0.983104
vn 0.000363 0.174545 0.984649
vn 0.016034 0.348476 0.937181
vn 0.138726 0.398689 0.906533
vn -0.819296 0.398687 -0.412072
vn -0.936345 0.174543 -0.304618
vn -0.984650 -0.078388 -0.155951
vn -0.886357 0.348476 -0.304853
vn -0.885671 0.439869 -0.148667
vn -0.983104 0.096236 -0.155706
vn -0.982247 0.187592 0.000000
vn -0.932509 0.361146 0.000000
vn -0.885671 0.439869 0.148666
vn -0.985412 -0.170184 0.000000
vn -0.984649 -0.078389 0.155951
vn -0.983104 0.096237 0.155707
vn -0.936345 0.174545 0.304618
vn -0.886357 0.348476 0.304854
vn -0.819296 0.398688 0.412072
vn 0.138726 0.398688 -0.906533
vn 0.000364 0.174545 -0.984649
vn -0.155953 -0.078388 -0.984649
vn 0.016035 0.348476 -0.937180
vn -0.132300 0.439872 -0.888262
vn -0.155709 0.096236 -0.983104
vn -0.303533 0.187593 -0.934171
vn -0.288163 0.361146 -0.886868
vn -0.415083 0.439872 -0.796378
vn -0.304506 -0.170186 -0.937183
vn -0.452594 -0.078389 -0.888265
vn -0.451883 0.096235 -0.886871
vn -0.579061 0.174546 -0.796381
vn -0.563838 0.348476 -0.748767
vn -0.645086 0.398689 -0.651853
vn 0.905035 0.398686 -0.148193
vn 0.936571 0.174544 -0.303923
vn 0.888267 -0.078388 -0.452590
vn 0.896269 0.348473 -0.274350
vn 0.803907 0.439871 -0.400308
vn 0.886873 0.096234 -0.451879
vn 0.794655 0.187594 -0.577349
vn 0.754418 0.361145 -0.548113
vn 0.629137 0.439872 -0.640858
vn 0.797217 -0.170186 -0.579207
vn 0.704933 -0.078388 -0.704929
vn 0.703827 0.096235 -0.703823
vn 0.578465 0.174546 -0.796813
vn 0.537886 0.348475 -0.767622
vn 0.420608 0.398689 -0.814945
vn 0.126060 0.987786 0.091587
vn 0.207859 0.915754 0.343786
vn 0.286017 0.759438 0.584335
vn 0.233376 0.957489 0.169558
vn 0.391194 0.915753 0.091451
vn 0.333798 0.836282 0.434985
vn 0.491120 0.794658 0.356819
vn 0.516845 0.836281 0.183046
vn 0.644125 0.759434 0.091451
vn 0.393647 0.636948 0.662827
vn 0.551342 0.595460 0.584337
vn 0.598705 0.672561 0.434986
vn 0.726114 0.595458 0.343786
vn 0.752031 0.636945 0.169559
vn 0.827125 0.554505 0.091587
vn -0.048151 0.987786 0.148191
vn -0.262729 0.915754 0.303920
vn -0.467354 0.759438 0.452586
vn -0.089143 0.957490 0.274349
vn 0.033908 0.915755 0.400305
vn -0.310547 0.836282 0.451877
vn -0.187594 0.794659 0.577344
vn -0.014375 0.836282 0.548111
vn 0.112066 0.759438 0.640855
vn -0.508743 0.636947 0.579205
vn -0.385367 0.595461 0.704925
vn -0.228689 0.672562 0.703819
vn -0.102585 0.595460 0.796808
vn 0.071126 0.636947 0.767619
vn 0.168486 0.554509 0.814943
vn -0.155816 0.987786 0.000000
vn -0.370234 0.915755 -0.155949
vn -0.574859 0.759438 -0.304617
vn -0.288470 0.957489 0.000000
vn -0.370234 0.915755 0.155949
vn -0.525729 0.836280 -0.155706
vn -0.607057 0.794658 0.000000
vn -0.525729 0.836280 0.155706
vn -0.574859 0.759438 0.304617
vn -0.708071 0.636946 -0.304853
vn -0.789509 0.595460 -0.148666
vn -0.740043 0.672560 0.000000
vn -0.789509 0.595460 0.148666
vn -0.708071 0.636946 0.304853
vn -0.722992 0.554508 0.412072
vn -0.048151 0.987786 -0.148191
vn 0.033908 0.915755 -0.400305
vn 0.112066 0.759438 -0.640855
vn -0.089143 0.957490 -0.274349
vn -0.262729 0.915754 -0.303920
vn -0.014375 0.836282 -0.548111
vn -0.187594 0.794659 -0.577343
vn -0.310547 0.836282 -0.451877
vn -0.467354 0.759438 -0.452586
vn 0.071126 0.636948 -0.767619
vn -0.102585 0.595460 -0.796808
vn -0.228689 0.672562 -0.703819
vn -0.385367 0.595461 -0.704925
vn -0.508743 0.636947 -0.579205
vn -0.615326 0.554508 -0.560263
vn 0.126060 0.987786 -0.091588
vn 0.391194 0.915753 -0.091451
vn 0.644124 0.759434 -0.091451
vn 0.233376 0.957489 -0.169557
vn 0.207859 0.915754 -0.343786
vn 0.516845 0.836281 -0.183046
vn 0.491120 0.794658 -0.356819
vn 0.333798 0.836282 -0.434985
vn 0.286017 0.759438 -0.584336
vn 0.752031 0.636945 -0.169559
vn 0.726114 0.595458 -0.343786
vn 0.598705 0.672561 -0.434987
vn 0.551342 0.595460 -0.584336
vn 0.393647 0.636948 -0.662827
vn 0.342697 0.554509 -0.758339
usemtl None
s off
f 1//1 16//1 15//1
f 2//2 18//2 24//2
f 1//3 15//3 30//3
f 1//4 30//4 36//4
f 1//5 36//5 25//5
f 2//6 24//6 45//6
f 3//7 21//7 51//7
f 4//8 33//8 57//8
f 5//9 39//9 63//9
f 6//10 42//10 69//10
f 2//11 45//11 52//11
f 3//12 51//12 58//12
f 4//13 57//13 64//13
f 5//14 63//14 70//14
f 6//15 69//15 46//15
f 7//16 75//16 90//16
f 8//17 78//17 96//17
f 9//18 81//18 99//18
f 10//19 84//19 102//19
f 11//20 87//20 91//20
f 13//21 21//21 3//21
f 14//22 103//22 13//22
f 15//23 104//23 14//23
f 13//24 103//24 21//24
f 103//25 20//25 21//25
f 14//26 104//26 103//26
f 104//27 105//27 103//27
f 103//28 105//28 20//28
f 105//29 19//29 20//29
f 15//30 16//30 104//30
f 16//31 17//31 104//31
f 104//32 17//32 105//32
f 17//33 18//33 105//33
f 105//34 18//34 19//34
f 18//35 2//35 19//35
f 22//36 27//36 6//36
f 23//37 106//37 22//37
f 24//38 107//38 23//38
f 22//39 106//39 27//39
f 106//40 26//40 27//40
f 23//41 107//41 106//41
f 107//42 108//42 106//42
f 106//43 108//43 26//43
f 108//44 25//44 26//44
f 24//45 18//45 107//45
f 18//46 17//46 107//46
f 107//47 17//47 108//47
f 17//48 16//48 108//48
f 108//49 16//49 25//49
f 16//50 1//50 25//50
f 28//51 33//51 4//51
f 29//52 109//52 28//52
f 30//53 110//53 29//53
f 28//54 109//54 33//54
f 109//55 32//55 33//55
f 29//56 110//56 109//56
f 110//57 111//57 109//57
f 109//58 111//58 32//58
f 111//59 31//59 32//59
f 30//60 15//60 110//60
f 15//61 14//61 110//61
f 110//62 14//62 111//62
f 14//63 13//63 111//63
f 111//64 13//64 31//64
f 13//65 3//65 31//65
f 34//66 39//66 5//66
f 35//67 112//67 34//67
f 36//68 113//68 35//68
f 34//69 112//69 39//69
f 112//70 38//70 39//70
f 35//71 113//71 112//71
f 113//72 114//72 112//72
f 112//73 114//73 38//73
f 114//74 37//74 38//74
f 36//75 30//75 113//75
f 30//76 29//76 113//76
f 113//77 29//77 114//77
f 29//78 28//78 114//78
f 114//79 28//79 37//79
f 28//80 4//80 37//80
f 27//81 42//81 6//81
f 26//82 115//82 27//82
f 25//83 116//83 26//83
f 27//84 115//84 42//84
f 115//85 41//85 42//85
f 26//86 116//86 115//86
f 116//87 117//87 115//87
f 115//88 117//88 41//88
f 117//89 40//89 41//89
f 25//90 36//90 116//90
f 36//91 35//91 116//91
f 116//92 35//92 117//92
f 35//93 34//93 117//93
f 117//94 34//94 40//94
f 34//95 5//95 40//95
f 43//96 48//96 11//96
f 44//97 118//97 43//97
f 45//98 119//98 44//98
f 43//99 118//99 48//99
f 118//100 47//100 48//100
f 44//101 119//101 118//101
f 119//102 120//102 118//102
f 118//103 120//103 47//103
f 120//104 46//104 47//104
f 45//105 24//105 119//105
f 24//106 23//106 119//106
f 119//107 23//107 120//107
f 23//108 22//108 120//108
f 120//109 22//109 46//109
f 22//110 6//110 46//110
f 49//111 54//111 7//111
f 50//112 121//112 49//112
f 51//113 122//113 50//113
f 49//114 121//114 54//114
f 121//115 53//115 54//115
f 50//116 122//116 121//116
f 122//117 123//117 121//117
f 121//118 123//118 53//118
f 123//119 52//119 53//119
f 51//120 21//120 122//120
f 21//121 20//121 122//121
f 122//122 20//122 123//122
f 20//123 19//123 123//123
f 123//124 19//124 52//124
f 19//125 2//125 52//125
f 55//126 60//126 8//126
f 56//127 124//127 55//127
f 57//128 125//128 56//128
f 55//129 124//129 60//129
f 124//130 59//130 60//130
f 56//131 125//131 124//131
f 125//132 126//132 124//132
f 124//133 126//133 59//133
f 126//134 58//134 59//134
f 57//135 33//135 125//135
f 33//136 32//136 125//136
f 125//137 32//137 126//137
f 32//138 31//138 126//138
f 126//139 31//139 58//139
f 31//140 3//140 58//140
f 61//141 66//141 9//141
f 62//142 127//142 61//142
f 63//143 128//143 62//143
f 61//144 127//144 66//144
f 127//145 65//145 66//145
f 62//146 128//146 127//146
f 128//147 129//147 127//147
f 127//148 129//148 65//148
f 129//149 64//149 65//149
f 63//150 39//150 128//150
f 39//151 38//151 128//151
f 128//152 38//152 129//152
f 38//153 37//153 129//153
f 129//154 37//154 64//154
f 37//155 4//155 64//155
f 67//156 72//156 10//156
f 68//157 130//157 67//157
f 69//158 131//158 68//158
f 67//159 130//159 72//159
f 130//160 71//160 72//160
f 68//161 131//161 130//161
f 131//162 132//162 130//162
f 130//163 132//163 71//163
f 132//164 70//164 71//164
f 69//165 42//165 131//165
f 42//166 41//166 131//166
f 131//167 41//167 132//167
f 41//168 40//168 132//168
f 132//169 40//169 70//169
f 40//170 5//170 70//170
f 54//171 75//171 7//171
f 53//172 133//172 54//172
f 52//173 134//173 53//173
f 54//174 133//174 75//174
f 133//175 74//175 75//175
f 53//176 134//176 133//176
f 134//177 135//177 133//177
f 133//178 135//178 74//178
f 135//179 73//179 74//179
f 52//180 45//180 134//180
f 45//181 44//181 134//181
f 134//182 44//182 135//182
f 44//183 43//183 135//183
f 135//184 43//184 73//184
f 43//185 11//185 73//185
f 60//186 78//186 8//186
f 59//187 136//187 60//187
f 58//188 137//188 59//188
f 60//189 136//189 78//189
f 136//190 77//190 78//190
f 59//191 137//191 136//191
f 137//192 138//192 136//192
f 136//193 138//193 77//193
f 138//194 76//194 77//194
f 58//195 51//195 137//195
f 51//196 50//196 137//196
f 137//197 50//197 138//197
f 50//198 49//198 138//198
f 138//199 49//199 76//199
f 49//200 7//200 76//200
f 66//201 81//201 9//201
f 65//202 139//202 66//202
f 64//203 140//203 65//203
f 66//204 139//204 81//204
f 139//205 80//205 81//205
f 65//206 140//206 139//206
f 140//207 141//207 139//207
f 139//208 141//208 80//208
f 141//209 79//209 80//209
f 64//210 57//210 140//210
f 57//211 56//211 140//211
f 140//212 56//212 141//212
f 56//213 55//213 141//213
f 141//214 55//214 79//214
f 55//215 8//215 79//215
f 72//216 84//216 10//216
f 71//217 142//217 72//217
f 70//218 143//218 71//218
f 72//219 142//219 84//219
f 142//220 83//220 84//220
f 71//221 143//221 142//221
f 143//222 144//222 142//222
f 142//223 144//223 83//223
f 144//224 82//224 83//224
f 70//225 63//225 143//225
f 63//226 62//226 143//226
f 143//227 62//227 144//227
f 62//228 61//228 144//228
f 144//229 61//229 82//229
f 61//230 9//230 82//230
f 48//231 87//231 11//231
f 47//232 145//232 48//232
f 46//233 146//233 47//233
f 48//234 145//234 87//234
f 145//235 86//235 87//235
f 47//236 146//236 145//236
f 146//237 147//237 145//237
f 145//238 147//238 86//238
f 147//239 85//239 86//239
f 46//240 69//240 146//240
f 69//241 68//241 146//241
f 146//242 68//242 147//242
f 68//243 67//243 147//243
f 147//244 67//244 85//244
f 67//245 10//245 85//245
f 88//246 93//246 12//246
f 89//247 148//247 88//247
f 90//248 149//248 89//248
f 88//249 148//249 93//249
f 148//250 92//250 93//250
f 89//251 149//251 148//251
f 149//252 150//252 148//252
f 148//253 150//253 92//253
f 150//254 91//254 92//254
f 90//255 75//255 149//255
f 75//256 74//256 149//256
f 149//257 74//257 150//257
f 74//258 73//258 150//258
f 150//259 73//259 91//259
f 73//260 11//260 91//260
f 94//261 88//261 12//261
f 95//262 151//262 94//262
f 96//263 152//263 95//263
f 94//264 151//264 88//264
f 151//265 89//265 88//265
f 95//266 152//266 151//266
f 152//267 153//267 151//267
f 151//268 153//268 89//268
f 153//269 90//269 89//269
f 96//270 78//270 152//270
f 78//271 77//271 152//271
f 152//272 77//272 153//272
f 77//273 76//273 153//273
f 153//274 76//274 90//274
f 76//275 7//275 90//275
f 97//276 94//276 12//276
f 98//277 154//277 97//277
f 99//278 155//278 98//278
f 97//279 154//279 94//279
f 154//280 95//280 94//280
f 98//281 155//281 154//281
f 155//282 156//282 154//282
f 154//283 156//283 95//283
f 156//284 96//284 95//284
f 99//285 81//285 155//285
f 81//286 80//286 155//286
f 155//287 80//287 156//287
f 80//288 79//288 156//288
f 156//289 79//289 96//289
f 79//290 8//290 96//290
f 100//291 97//291 12//291
f 101//292 157//292 100//292
f 102//293 158//293 101//293
f 100//294 157//294 97//294
f 157//295 98//295 97//295
f 101//296 158//296 157//296
f 158//297 159//297 157//297
f 157//298 159//298 98//298
f 159//299 99//299 98//299
f 102//300 84//300 158//300
f 84//301 83//301 158//301
f 158//302 83//302 159//302
f 83//303 82//303 159//303
f 159//304 82//304 99//304
f 82//305 9//305 99//305
f 93//306 100//306 12//306
f 92//307 160//307 93//307
f 91//308 161//308 92//308
f 93//309 160//309 100//309
f 160//310 101//310 100//310
f 92//311 161//311 160//311
f 161//312 162//312 160//312
f 160//313 162//313 101//313
f 162//314 102//314 101//314
f 91//315 87//315 161//315
f 87//316 86//316 161//316
f 161//317 86//317 162//317
f 86//318 85//318 162//318
f 162//319 85//319 102//319
f 85//320 10//320 102//320
